<svg width="288" height="55" viewBox="0 0 288 55" fill="none" xmlns="http://www.w3.org/2000/svg">
<circle cx="35.0215" cy="27.25" r="27.25" fill="#5560D7"/>
<path d="M23 18H20V39C20 40.65 21.35 42 23 42H44V39H23V18ZM47 12H29C27.35 12 26 13.35 26 15V33C26 34.65 27.35 36 29 36H47C48.65 36 50 34.65 50 33V15C50 13.35 48.65 12 47 12ZM47 27L43.25 24.75L39.5 27V15H47V27Z" fill="white"/>
<path d="M80.4155 36.398H71.9195L70.6595 40.25H62.2715L71.5955 14.762H80.8115L90.0995 40.25H81.6755L80.4155 36.398ZM78.4715 30.386L76.1675 23.294L73.8635 30.386H78.4715ZM101.887 40.502C98.8392 40.502 96.3192 39.794 94.3272 38.378C92.3592 36.938 91.2912 34.838 91.1232 32.078H99.6192C99.7392 33.542 100.387 34.274 101.563 34.274C101.995 34.274 102.355 34.178 102.643 33.986C102.955 33.77 103.111 33.446 103.111 33.014C103.111 32.414 102.787 31.934 102.139 31.574C101.491 31.19 100.483 30.758 99.1152 30.278C97.4832 29.702 96.1272 29.138 95.0472 28.586C93.9912 28.034 93.0792 27.23 92.3112 26.174C91.5432 25.118 91.1712 23.762 91.1952 22.106C91.1952 20.45 91.6152 19.046 92.4552 17.894C93.3192 16.718 94.4832 15.83 95.9472 15.23C97.4352 14.63 99.1032 14.33 100.951 14.33C104.071 14.33 106.543 15.05 108.367 16.49C110.215 17.93 111.187 19.958 111.283 22.574H102.679C102.655 21.854 102.475 21.338 102.139 21.026C101.803 20.714 101.395 20.558 100.915 20.558C100.579 20.558 100.303 20.678 100.087 20.918C99.8712 21.134 99.7632 21.446 99.7632 21.854C99.7632 22.43 100.075 22.91 100.699 23.294C101.347 23.654 102.367 24.098 103.759 24.626C105.367 25.226 106.687 25.802 107.719 26.354C108.775 26.906 109.687 27.674 110.455 28.658C111.223 29.642 111.607 30.878 111.607 32.366C111.607 33.926 111.223 35.33 110.455 36.578C109.687 37.802 108.571 38.762 107.107 39.458C105.643 40.154 103.903 40.502 101.887 40.502ZM122.407 21.134V24.266H130.327V30.278H122.407V33.878H131.407V40.25H114.415V14.762H131.407V21.134H122.407ZM144.391 40.502C141.343 40.502 138.823 39.794 136.831 38.378C134.863 36.938 133.795 34.838 133.627 32.078H142.123C142.243 33.542 142.891 34.274 144.067 34.274C144.499 34.274 144.859 34.178 145.147 33.986C145.459 33.77 145.615 33.446 145.615 33.014C145.615 32.414 145.291 31.934 144.643 31.574C143.995 31.19 142.987 30.758 141.619 30.278C139.987 29.702 138.631 29.138 137.551 28.586C136.495 28.034 135.583 27.23 134.815 26.174C134.047 25.118 133.675 23.762 133.699 22.106C133.699 20.45 134.119 19.046 134.959 17.894C135.823 16.718 136.987 15.83 138.451 15.23C139.939 14.63 141.607 14.33 143.455 14.33C146.575 14.33 149.047 15.05 150.871 16.49C152.719 17.93 153.691 19.958 153.787 22.574H145.183C145.159 21.854 144.979 21.338 144.643 21.026C144.307 20.714 143.899 20.558 143.419 20.558C143.083 20.558 142.807 20.678 142.591 20.918C142.375 21.134 142.267 21.446 142.267 21.854C142.267 22.43 142.579 22.91 143.203 23.294C143.851 23.654 144.871 24.098 146.263 24.626C147.871 25.226 149.191 25.802 150.223 26.354C151.279 26.906 152.191 27.674 152.959 28.658C153.727 29.642 154.111 30.878 154.111 32.366C154.111 33.926 153.727 35.33 152.959 36.578C152.191 37.802 151.075 38.762 149.611 39.458C148.147 40.154 146.407 40.502 144.391 40.502ZM169.339 40.502C166.939 40.502 164.731 39.938 162.715 38.81C160.723 37.682 159.139 36.122 157.963 34.13C156.787 32.138 156.199 29.894 156.199 27.398C156.199 24.902 156.787 22.658 157.963 20.666C159.139 18.674 160.723 17.126 162.715 16.022C164.731 14.894 166.939 14.33 169.339 14.33C171.739 14.33 173.935 14.894 175.927 16.022C177.919 17.126 179.491 18.674 180.643 20.666C181.819 22.658 182.407 24.902 182.407 27.398C182.407 29.894 181.819 32.138 180.643 34.13C179.491 36.122 177.907 37.682 175.891 38.81C173.899 39.938 171.715 40.502 169.339 40.502ZM169.339 33.05C170.923 33.05 172.147 32.546 173.011 31.538C173.875 30.506 174.307 29.126 174.307 27.398C174.307 25.646 173.875 24.266 173.011 23.258C172.147 22.226 170.923 21.71 169.339 21.71C167.731 21.71 166.495 22.226 165.631 23.258C164.767 24.266 164.335 25.646 164.335 27.398C164.335 29.126 164.767 30.506 165.631 31.538C166.495 32.546 167.731 33.05 169.339 33.05ZM198.106 40.25L193.318 31.106H193.282V40.25H185.29V14.762H197.17C199.234 14.762 200.998 15.134 202.462 15.878C203.926 16.598 205.018 17.594 205.738 18.866C206.482 20.114 206.854 21.53 206.854 23.114C206.854 24.818 206.374 26.33 205.414 27.65C204.478 28.97 203.122 29.918 201.346 30.494L206.89 40.25H198.106ZM193.282 25.778H196.45C197.218 25.778 197.794 25.61 198.178 25.274C198.562 24.914 198.754 24.362 198.754 23.618C198.754 22.946 198.55 22.418 198.142 22.034C197.758 21.65 197.194 21.458 196.45 21.458H193.282V25.778ZM225.751 36.398H217.255L215.995 40.25H207.607L216.931 14.762H226.147L235.435 40.25H227.011L225.751 36.398ZM223.807 30.386L221.503 23.294L219.199 30.386H223.807ZM252.947 24.662V31.25H236.171V24.662H252.947ZM278.009 14.762V21.098H271.241V40.25H263.249V21.098H256.553V14.762H278.009Z" fill="#5560D7"/>
</svg>
